<svg xmlns="http://www.w3.org/2000/svg" fill-rule="evenodd" clip-rule="evenodd" viewBox="0 0 128 32">
<path xmlns="http://www.w3.org/2000/svg" fill="#ffd132" fill-rule="evenodd" clip-rule="evenodd" d="M14.1195 18.9747C16.6784 21.6818 16.6784 21.6818 19.0183 24.2428C16.386 26.9498 16.386 26.9498 13.6811 29.5834C11.1951 27.2424 11.1951 27.2424 8.41678 24.6814C11.2681 21.8283 11.2681 21.8283 14.1195 18.9747ZM35.0306 25.34C35.0306 25.9986 35.542 26.5838 36.2735 26.5838H47.7526C51.4816 26.5838 54.8447 24.6814 54.8447 20.8771C54.8447 19.0482 54.1135 17.4384 52.2857 16.4876C53.6017 15.3899 54.1135 14.2926 54.1135 12.9754C54.1135 9.025 50.6044 7.56171 47.1679 7.56171L36.3469 7.56132C35.6157 7.56132 35.1039 8.14649 35.1039 8.80509V25.3397H35.0309L35.0306 25.34ZM47.1675 11.0004C48.2644 11.0004 48.9956 11.659 48.9956 12.9028C48.9956 14.1465 48.2644 14.8048 47.1675 14.8048L40.0754 14.8051V10.9277H47.1675V11.0008V11.0004ZM47.6063 18.3896C48.9956 18.3896 49.7264 19.3407 49.7264 20.6576C49.7264 22.0478 48.9952 22.9256 47.6063 22.9256H40.002V18.3165H47.6063V18.3896ZM75.6824 26.5838C76.3406 26.5838 76.9254 25.9986 76.9254 25.34V8.73204C76.9254 8.07344 76.4136 7.48827 75.6824 7.48827H71.7341C71.0759 7.48827 70.2717 8.07344 69.9063 8.73204L62.3025 22.0474V8.6586C62.3025 8.00001 61.7173 7.41484 61.0592 7.41484L58.7196 7.41522C57.9884 7.41522 57.4766 8.00039 57.4766 8.65899V25.2666C57.4766 25.9252 57.988 26.5104 58.7196 26.5104H63.1067C63.8379 26.5104 64.6421 25.9252 65.0078 25.2666L71.9535 12.9024V25.2666C71.9535 25.9252 72.5387 26.5104 73.1968 26.5104H75.6828V26.5838H75.6824ZM94.9847 25.34C94.9847 25.9986 95.5695 26.5838 96.2277 26.5838H98.7136C99.4448 26.5838 100.03 25.9986 100.03 25.34V8.73204C100.03 8.00039 99.4448 7.48827 98.7136 7.48827H96.2277C95.5695 7.48827 94.9847 8.07344 94.9847 8.73204V14.7313H85.8456V8.73204C85.8456 8.00039 85.2604 7.48827 84.6026 7.48827H82.1166C81.3855 7.48827 80.8003 8.07344 80.8003 8.73204V25.34C80.8003 25.9986 81.3851 26.5838 82.1166 26.5838H84.6026C85.2604 26.5838 85.8456 26.0717 85.8456 25.34V18.4626H94.9847V25.34ZM107.56 26.5838C108.219 26.5838 108.803 26.0717 108.803 25.34V18.9017H111.655C113.41 18.9017 114.36 19.999 115.384 21.6087L117.723 25.34C118.162 26.0717 119.112 26.5838 119.77 26.5838H122.841C123.573 26.5838 123.719 26.0717 123.28 25.34L119.917 20.0724C119.186 18.9017 117.797 17.2189 116.48 16.9263C118.308 16.4876 119.259 15.1704 119.917 13.9997L122.841 8.73204C123.28 8.00039 123.134 7.41522 122.403 7.41522H119.332C118.674 7.41522 117.943 7.85391 117.431 8.73204L115.384 12.3903C114.287 14.2926 113.191 15.0973 111.655 15.0973L108.803 15.0977V8.73242C108.803 8.00077 108.218 7.41561 107.56 7.41561H105.075C104.416 7.41561 103.831 8.00077 103.831 8.73242V25.3404C103.831 26.0721 104.416 26.6572 105.075 26.6572H107.56V26.5842V26.5838ZM21.2115 31.7784C20.4073 32.5831 19.6027 33.2417 18.7256 33.8999C17.1172 32.6561 17.1172 32.6561 15.2164 30.9733C17.8484 28.4858 17.8484 28.4858 20.4073 25.7787C22.0157 27.6811 22.0157 27.6811 23.332 29.2905C22.6739 30.0952 22.0157 30.9733 21.2119 31.778L21.2115 31.7784ZM18.7256 0.0991211C19.6031 0.757719 20.4073 1.41632 21.2115 2.22063C22.0157 3.02533 22.6739 3.83003 23.3316 4.70816C22.0887 6.31756 22.0887 6.31756 20.4069 8.21992C17.848 5.58591 17.848 5.58591 15.216 3.02533C17.1172 1.41593 17.1172 1.41594 18.7252 0.0991211H18.7256ZM24.575 6.68396C25.818 8.80547 26.6222 11.1469 26.9879 13.4879C26.4761 14.3661 26.4762 14.3661 25.891 15.3169C24.0632 12.7563 24.0632 12.7563 21.9431 10.0492C23.4784 8.29335 23.4784 8.29335 24.5754 6.68396H24.575ZM26.9879 20.5115C26.6225 22.8525 25.745 25.1939 24.575 27.3154C23.478 25.7061 23.478 25.7061 22.0161 23.8767C24.1362 21.1697 24.1362 21.1697 25.9644 18.6825C26.4762 19.6337 26.4761 19.6337 26.9879 20.5115ZM13.6811 4.48901C16.3864 7.12302 16.3864 7.12302 19.0183 9.83008C16.6788 12.3176 16.6788 12.3176 14.1195 15.0243C11.3411 12.1711 11.3411 12.1711 8.41678 9.31797C11.1221 6.75739 11.1221 6.75739 13.6811 4.48901ZM6.44262 11.2199C9.29396 14.0735 9.29396 14.0735 12.2187 16.9997C9.36697 19.8529 9.36697 19.8529 6.44262 22.7064C3.5909 19.8529 3.5909 19.8529 0.739563 16.9997C3.5909 14.1465 3.5909 14.1465 6.44262 11.2199ZM20.7001 11.7321C22.9663 14.4391 22.9663 14.4391 24.8678 16.9997C22.9666 19.5603 22.9666 19.5603 20.7001 22.2673C18.5065 19.7068 18.5065 19.7068 15.9476 16.9997C18.5065 14.2926 18.5065 14.2926 20.7001 11.7321Z"/>
</svg>